<?xml version="1.0" encoding="utf-8"?>
<!-- Generator: Adobe Illustrator 17.0.0, SVG Export Plug-In . SVG Version: 6.00 Build 0)  -->
<!DOCTYPE svg PUBLIC "-//W3C//DTD SVG 1.1//EN" "http://www.w3.org/Graphics/SVG/1.1/DTD/svg11.dtd">
<svg version="1.1" id="Слой_1" xmlns="http://www.w3.org/2000/svg" xmlns:xlink="http://www.w3.org/1999/xlink" x="0px" y="0px"
	 width="1176.38px" height="820.91px" viewBox="0 0 1176.38 820.91" enable-background="new 0 0 1176.38 820.91"
	 xml:space="preserve">
<polygon fill="#703672" points="511.899,0 337.941,107.944 337.941,246.827 511.899,129.265 "/>
<polyline fill="#963674" points="512.053,52.815 337.943,246.829 511.897,129.267 512.053,0.248 511.897,129.267 "/>
<path fill="#A5212A" d="M633.27,364.662v-72.854c0-10.502-0.889-18.11-5.176-21.894c-3.608-3.367-9.462-4.925-18.693-4.925
	c-9.236,0-17.794,2.01-23.653,4.688v94.984h-36.477V211.744l36.477-25.598v71.02h1.588c3.603-4.698,11.241-12.744,13.96-14.301
	c4.96-3.131,16.211-5.583,29.291-5.583c14.392,0,23.633,2.905,29.708,8.93c7.437,7.608,9.236,19.899,9.236,35.759v82.693H633.27z"/>
<polygon fill="#A5212A" points="952.362,365.645 908,365.645 871.292,307.54 862.046,307.54 862.046,365.645 826.016,365.645 
	826.016,211.747 862.046,185.973 862.046,302.621 906.638,240.27 949.216,240.27 904.844,296.591 "/>
<path fill="#A5212A" d="M1046.307,266.639h-35.146v55.643c0,14.533,4.518,17.658,17.573,17.658c7.437,0,19.512-1.256,24.015-1.693
	l-5.332,24.929c-7.879,2.015-20.045,4.467-34.462,4.467c-28.13,0-38.04-11.392-38.04-37.98v-63.025h-66.361l1.794-26.372h64.567
	v-54.291l36.246-25.603v79.894h40.326L1046.307,266.639z"/>
<path fill="#A5212A" d="M1147.702,365.645l-5.864-18.1h-1.573c-4.724,6.03-12.829,14.97-13.97,15.859
	c-4.482,2.452-16.211,4.241-27.02,4.241c-14.191,0-22.507-2.889-27.693-8.482c-5.402-5.814-8.337-16.09-8.337-26.377
	c0-17.427,6.517-26.135,13.522-30.834c11.246-7.382,37.377-11.623,64.859-14.075c0-6.256-0.915-14.095-3.603-17.437
	c-3.377-4.246-12.623-5.362-22.085-5.362c-15.522,0-35.256,2.96-45.839,4.523l5.759-25.201c11.472-3.116,29.271-7.035,51.809-7.035
	c19.588,0,31.964,3.136,39.402,9.392c6.98,6.256,10.814,17.206,10.814,36.648v82.241H1147.702z M1141.627,309.329
	c-16,0.447-37.181,2.005-40.542,4.91c-2.03,2.015-3.377,6.266-3.377,12.517c0,5.814,1.347,10.286,3.603,12.512
	c2.708,2.241,7.422,3.583,15.764,3.583c9.678,0,19.588-1.563,24.553-2.915V309.329z"/>
<path fill="#A5212A" d="M771.115,365.645l-5.864-18.1h-1.573c-4.724,6.03-12.829,14.97-13.97,15.859
	c-4.482,2.452-16.211,4.241-27.02,4.241c-14.191,0-22.507-2.889-27.693-8.482c-5.402-5.814-8.337-16.09-8.337-26.377
	c0-17.427,6.518-26.135,13.523-30.834c11.246-7.382,37.377-11.623,64.859-14.075c0-6.256-0.915-14.095-3.603-17.437
	c-3.377-4.246-12.623-5.362-22.085-5.362c-15.522,0-35.256,2.96-45.839,4.523l5.759-25.201c11.472-3.116,29.271-7.035,51.809-7.035
	c19.588,0,31.965,3.136,39.402,9.392c6.98,6.256,10.814,17.206,10.814,36.648v82.241H771.115z M765.04,309.329
	c-16,0.447-37.181,2.005-40.542,4.91c-2.03,2.015-3.377,6.266-3.377,12.517c0,5.814,1.347,10.286,3.603,12.512
	c2.708,2.241,7.422,3.583,15.764,3.583c9.678,0,19.588-1.563,24.553-2.915V309.329z"/>
<polygon fill="#512046" points="337.942,107.942 337.942,177.922 476.73,21.863 "/>
<g>
	<g>
		<defs>
			<rect id="SVGID_1_" x="337.94" y="107.94" width="110.642" height="156.255"/>
		</defs>
		<clipPath id="SVGID_2_">
			<use xlink:href="#SVGID_1_"  overflow="visible"/>
		</clipPath>
		<polygon clip-path="url(#SVGID_2_)" fill="#EEAA23" points="337.942,107.942 337.942,264.197 448.585,123.54 		"/>
	</g>
</g>
<polygon fill="#C03823" points="260.345,123.414 511.901,366.372 511.901,300.116 "/>
<path fill="#A5212A" d="M236.268,123.471c-2.553,0.156-13.94,1.085-18.04,1.724c6.045,1.739,15.754,7.99,19.005,13.372v19.799
	l-132.843,82.432l407.509,125.577L260.348,123.416C260.348,123.416,236.886,123.431,236.268,123.471"/>
<polygon fill="#006963" points="104.389,240.798 0.003,305.572 0.003,483.455 279.302,294.697 "/>
<g>
	<g>
		<defs>
			<rect id="SVGID_3_" x="0.002" y="156.749" width="279.296" height="147.21"/>
		</defs>
		<clipPath id="SVGID_4_">
			<use xlink:href="#SVGID_3_"  overflow="visible"/>
		</clipPath>
		<polygon clip-path="url(#SVGID_4_)" fill="#EEAA23" points="237.236,157.678 237.236,156.749 0.001,303.958 279.301,293.084 		"/>
	</g>
</g>
<g>
	<g>
		<defs>
			<rect id="SVGID_5_" x="0" y="264.195" width="279.297" height="219.257"/>
		</defs>
		<clipPath id="SVGID_6_">
			<use xlink:href="#SVGID_5_"  overflow="visible"/>
		</clipPath>
		<polygon clip-path="url(#SVGID_6_)" fill="#053a35" points="0,483.452 180.32,264.197 279.3,294.7 		"/>
	</g>
</g>
<polygon fill="#008685" points="104.389,240.798 0.003,305.572 0.003,374.862 "/>
</svg>
